<svg xmlns="http://www.w3.org/2000/svg" width="1439" height="320" fill="none"><path fill="url(#a)" d="M356.571 161.199 388 213.955 326.54 320h-66.003l-60.106-106.045 31.781-52.756h124.359Z"/><path fill="url(#b)" d="M322.284 103.647H200.146l-67.74 108.176-33.87 54.089L64.667 320 0 213.955 130.669 0h129.868l61.747 103.647Z"/><path fill="url(#c)" d="M167.317 268.925 136.548 320l-38.011-54.088 33.869-54.089 34.911 57.102Z"/><path fill="url(#d)" d="M198.543 320h-61.995l30.769-51.075L198.543 320Z"/><path fill="url(#e)" d="M136.548 320H64.667l33.87-54.088L136.548 320Z"/><path fill="#fff" d="M628.4 113.699v150.3h-36v-75c0-12-4.2-22.2-12.6-30.6-8.4-8.4-18.6-12.6-30.6-12.6-5.8 0-11.4 1.1-16.8 3.3-5.2 2.2-9.8 5.3-13.8 9.3-8.4 8.4-12.6 18.6-12.6 30.6 0 11.8 4.2 21.9 12.6 30.3 4 4.2 8.6 7.4 13.8 9.6 5.4 2 11 3 16.8 3 6 0 11.4-1 16.2-3l12.9 32.1c-9.2 4.6-19.9 6.9-32.1 6.9-11 0-21.2-2-30.6-6-9.2-4.2-17.2-9.9-24-17.1-6.8-7.2-12.1-15.6-15.9-25.2-3.8-9.6-5.7-19.8-5.7-30.6 0-11 1.9-21.3 5.7-30.9 3.8-9.6 9.1-18 15.9-25.2 6.8-7.2 14.8-12.8 24-16.8 9.4-4.2 19.6-6.3 30.6-6.3 9.8 0 18.5 1.5 26.1 4.5 7.6 3 14.3 6.8 20.1 11.4v-12h36Zm39.002 150.3v-150h36v150h-36Zm0-210h36v36h-36V54Zm205.929 190.8c-7.2 7.2-15.6 12.9-25.2 17.1-9.6 4-19.9 6-30.9 6s-21.3-2-30.9-6c-9.6-4.2-18-9.9-25.2-17.1-7.2-7.2-12.9-15.6-17.1-25.2-4-9.6-6-19.8-6-30.6 0-11 2-21.3 6-30.9 4.2-9.6 9.9-18 17.1-25.2 7.2-7.2 15.6-12.8 25.2-16.8 9.6-4.2 19.9-6.3 30.9-6.3s21.3 2.1 30.9 6.3c9.6 4 18 9.6 25.2 16.8l-25.5 25.5c-8.4-8.4-18.6-12.6-30.6-12.6-11.6 0-21.8 4.2-30.6 12.6-8.4 8.4-12.6 18.6-12.6 30.6 0 11.8 4.2 21.9 12.6 30.3 4.2 4.2 8.9 7.4 14.1 9.6 5.2 2 10.7 3 16.5 3 12.2 0 22.4-4.2 30.6-12.6l25.5 25.5Zm179.379-131.1v150.3h-36v-75c0-12-4.2-22.2-12.6-30.6-8.398-8.4-18.597-12.6-30.597-12.6-5.8 0-11.401 1.1-16.801 3.3-5.2 2.2-9.799 5.3-13.799 9.3-8.4 8.4-12.601 18.6-12.601 30.6 0 11.8 4.201 21.9 12.601 30.3 4 4.2 8.599 7.4 13.799 9.6 5.4 2 11.001 3 16.801 3 6 0 11.4-1 16.2-3l12.897 32.1c-9.198 4.6-19.897 6.9-32.097 6.9-11 0-21.201-2-30.6-6-9.201-4.2-17.201-9.9-24-17.1-6.8-7.2-12.101-15.6-15.9-25.2-3.8-9.6-5.701-19.8-5.701-30.6 0-11 1.901-21.3 5.701-30.9 3.799-9.6 9.1-18 15.9-25.2 6.799-7.2 14.799-12.8 24-16.8 9.399-4.2 19.6-6.3 30.6-6.3 9.799 0 18.5 1.5 26.099 4.5 7.598 3 14.298 6.8 20.098 11.4v-12h36Zm192.6-59.999v210.299h-36v-75c0-12.2-4.2-22.4-12.6-30.6-8.4-8.4-18.5-12.6-30.3-12.6-12 0-22.2 4.2-30.6 12.6-8.4 8.4-12.6 18.6-12.6 30.6 0 11.8 4.2 21.9 12.6 30.3 4 4.2 8.6 7.4 13.8 9.6 5.4 2 11 3 16.8 3 5.8 0 11.1-1 15.9-3l12.9 32.1c-9.2 4.6-19.8 6.9-31.8 6.9-11 0-21.2-2-30.6-6-9.2-4.2-17.2-9.9-24-17.1-6.8-7.2-12.1-15.6-15.9-25.2-3.8-9.6-5.7-19.8-5.7-30.6 0-11 1.9-21.3 5.7-30.9 3.8-9.6 9.1-18 15.9-25.2 6.8-7.2 14.8-12.8 24-16.8 9.4-4.2 19.6-6.3 30.6-6.3 9.6 0 18.2 1.5 25.8 4.5 7.6 3 14.3 6.8 20.1 11.4v-72h36Zm74.41 153.299c2 4.6 4.9 8.7 8.7 12.3 4.2 4.2 8.9 7.4 14.1 9.6 5.2 2 10.7 3 16.5 3 8.2 0 15.5-1.9 21.9-5.7l37.5 15c-7.2 8.4-15.9 15-26.1 19.8-10.2 4.6-21.3 6.9-33.3 6.9-11 0-21.3-2-30.9-6-9.6-4.2-18-9.9-25.2-17.1-7.2-7.2-12.9-15.6-17.1-25.2-4-9.6-6-19.8-6-30.6 0-11 2-21.3 6-30.9 4.2-9.6 9.9-18 17.1-25.2 7.2-7.2 15.6-12.8 25.2-16.8 9.6-4.2 19.9-6.3 30.9-6.3s21.3 2.1 30.9 6.3c9.6 4 18 9.6 25.2 16.8 7.2 7.2 12.8 15.6 16.8 25.2 4.2 9.6 6.3 19.9 6.3 30.9 0 6.4-.7 12.4-2.1 18h-116.4Zm39.3-61.2c-11.6 0-21.8 4.2-30.6 12.6-3.8 3.8-6.7 8-8.7 12.6h78.6c-2-4.6-4.9-8.8-8.7-12.6-8.4-8.4-18.6-12.6-30.6-12.6Z"/><defs><linearGradient id="a" x1="65.354" x2="358.216" y1="106.128" y2="283.112" gradientUnits="userSpaceOnUse"><stop stop-color="#F8981E"/><stop offset="1" stop-color="#DF2111"/></linearGradient><linearGradient id="b" x1="65.354" x2="358.216" y1="106.128" y2="283.112" gradientUnits="userSpaceOnUse"><stop stop-color="#F8981E"/><stop offset="1" stop-color="#DF2111"/></linearGradient><linearGradient id="c" x1="65.354" x2="358.216" y1="106.128" y2="283.112" gradientUnits="userSpaceOnUse"><stop stop-color="#F8981E"/><stop offset="1" stop-color="#DF2111"/></linearGradient><linearGradient id="d" x1="65.354" x2="358.216" y1="106.128" y2="283.112" gradientUnits="userSpaceOnUse"><stop stop-color="#F8981E"/><stop offset="1" stop-color="#DF2111"/></linearGradient><linearGradient id="e" x1="65.354" x2="358.216" y1="106.128" y2="283.112" gradientUnits="userSpaceOnUse"><stop stop-color="#F8981E"/><stop offset="1" stop-color="#DF2111"/></linearGradient></defs></svg>